<?xml version="1.0" encoding="UTF-8" standalone="no"?>
<!-- Created with Inkscape (http://www.inkscape.org/) -->

<svg
   xmlns:dc="http://purl.org/dc/elements/1.1/"
   xmlns:cc="http://creativecommons.org/ns#"
   xmlns:rdf="http://www.w3.org/1999/02/22-rdf-syntax-ns#"
   xmlns:svg="http://www.w3.org/2000/svg"
   xmlns="http://www.w3.org/2000/svg"
   xmlns:xlink="http://www.w3.org/1999/xlink"
   xmlns:sodipodi="http://sodipodi.sourceforge.net/DTD/sodipodi-0.dtd"
   xmlns:inkscape="http://www.inkscape.org/namespaces/inkscape"
   width="744.09448819"
   height="1052.3622047"
   id="svg2"
   version="1.1"
   inkscape:version="0.48.4 r9939"
   sodipodi:docname="icon.svg">
  <defs
     id="defs4">
    <linearGradient
       inkscape:collect="always"
       id="linearGradient3938">
      <stop
         style="stop-color:#ffff76;stop-opacity:1;"
         offset="0"
         id="stop3940" />
      <stop
         style="stop-color:#ffff76;stop-opacity:0;"
         offset="1"
         id="stop3942" />
    </linearGradient>
    <linearGradient
       id="linearGradient3918">
      <stop
         style="stop-color:#ffffff;stop-opacity:1;"
         offset="0"
         id="stop3920" />
      <stop
         style="stop-color:#ffff76;stop-opacity:0;"
         offset="1"
         id="stop3922" />
    </linearGradient>
    <linearGradient
       inkscape:collect="always"
       id="linearGradient3904">
      <stop
         style="stop-color:#ffffff;stop-opacity:1"
         offset="0"
         id="stop3906" />
      <stop
         style="stop-color:#808080;stop-opacity:0;"
         offset="1"
         id="stop3908" />
    </linearGradient>
    <linearGradient
       id="linearGradient3850">
      <stop
         style="stop-color:#670000;stop-opacity:0;"
         offset="0"
         id="stop3852" />
      <stop
         style="stop-color:#3b0000;stop-opacity:1;"
         offset="1"
         id="stop3854" />
    </linearGradient>
    <linearGradient
       id="linearGradient3815">
      <stop
         style="stop-color:#760303;stop-opacity:1;"
         offset="0"
         id="stop3817" />
      <stop
         style="stop-color:#360202;stop-opacity:0.8214286;"
         offset="1"
         id="stop3819" />
    </linearGradient>
    <filter
       inkscape:collect="always"
       id="filter3946"
       x="-0.28749518"
       width="1.5749904"
       y="-0.36416059"
       height="1.7283212">
      <feGaussianBlur
         inkscape:collect="always"
         stdDeviation="32.187552"
         id="feGaussianBlur3948" />
    </filter>
    <filter
       inkscape:collect="always"
       id="filter4067"
       x="-0.44482759"
       width="1.8896552"
       y="-0.44482759"
       height="1.8896552">
      <feGaussianBlur
         inkscape:collect="always"
         stdDeviation="15.352578"
         id="feGaussianBlur4069" />
    </filter>
    <filter
       inkscape:collect="always"
       id="filter4085"
       x="-0.3024"
       width="1.6048"
       y="-0.3024"
       height="1.6048">
      <feGaussianBlur
         inkscape:collect="always"
         stdDeviation="10.436896"
         id="feGaussianBlur4087" />
    </filter>
    <linearGradient
       inkscape:collect="always"
       xlink:href="#linearGradient3904"
       id="linearGradient3168"
       gradientUnits="userSpaceOnUse"
       x1="430.45114"
       y1="225.66872"
       x2="359.12048"
       y2="262.09729" />
    <radialGradient
       inkscape:collect="always"
       xlink:href="#linearGradient3918"
       id="radialGradient3170"
       gradientUnits="userSpaceOnUse"
       gradientTransform="matrix(2.0188321,0.01107033,-0.00776373,1.4158258,-403.59907,-105.96733)"
       cx="398.00009"
       cy="244.24014"
       fx="398.00009"
       fy="244.24014"
       r="40.406101" />
    <linearGradient
       inkscape:collect="always"
       xlink:href="#linearGradient3938"
       id="linearGradient3172"
       gradientUnits="userSpaceOnUse"
       x1="485.88336"
       y1="192.72237"
       x2="487.90369"
       y2="388.69196" />
    <linearGradient
       inkscape:collect="always"
       xlink:href="#linearGradient3904"
       id="linearGradient4069"
       gradientUnits="userSpaceOnUse"
       x1="430.45114"
       y1="225.66872"
       x2="359.12048"
       y2="262.09729" />
    <radialGradient
       inkscape:collect="always"
       xlink:href="#linearGradient3918"
       id="radialGradient4071"
       gradientUnits="userSpaceOnUse"
       gradientTransform="matrix(2.0188321,0.01107033,-0.00776373,1.4158258,-403.59907,-105.96733)"
       cx="398.00009"
       cy="244.24014"
       fx="398.00009"
       fy="244.24014"
       r="40.406101" />
    <linearGradient
       inkscape:collect="always"
       xlink:href="#linearGradient3938"
       id="linearGradient4073"
       gradientUnits="userSpaceOnUse"
       x1="485.88336"
       y1="192.72237"
       x2="487.90369"
       y2="388.69196" />
    <filter
       inkscape:collect="always"
       id="filter4137"
       x="-0.18792483"
       width="1.3758497"
       y="-0.18772745"
       height="1.3754549">
      <feGaussianBlur
         inkscape:collect="always"
         stdDeviation="14.575549"
         id="feGaussianBlur4139" />
    </filter>
    <filter
       inkscape:collect="always"
       id="filter4201">
      <feGaussianBlur
         inkscape:collect="always"
         stdDeviation="28.173914"
         id="feGaussianBlur4203" />
    </filter>
    <linearGradient
       inkscape:collect="always"
       xlink:href="#linearGradient3904"
       id="linearGradient4438"
       gradientUnits="userSpaceOnUse"
       x1="430.45114"
       y1="225.66872"
       x2="359.12048"
       y2="262.09729" />
    <radialGradient
       inkscape:collect="always"
       xlink:href="#linearGradient3918"
       id="radialGradient4440"
       gradientUnits="userSpaceOnUse"
       gradientTransform="matrix(2.0188321,0.01107033,-0.00776373,1.4158258,-403.59907,-105.96733)"
       cx="398.00009"
       cy="244.24014"
       fx="398.00009"
       fy="244.24014"
       r="40.406101" />
    <linearGradient
       inkscape:collect="always"
       xlink:href="#linearGradient3938"
       id="linearGradient4442"
       gradientUnits="userSpaceOnUse"
       x1="485.88336"
       y1="192.72237"
       x2="487.90369"
       y2="388.69196" />
    <linearGradient
       inkscape:collect="always"
       xlink:href="#linearGradient3904"
       id="linearGradient4499"
       gradientUnits="userSpaceOnUse"
       x1="430.45114"
       y1="225.66872"
       x2="359.12048"
       y2="262.09729" />
    <radialGradient
       inkscape:collect="always"
       xlink:href="#linearGradient3918"
       id="radialGradient4501"
       gradientUnits="userSpaceOnUse"
       gradientTransform="matrix(2.0188321,0.01107033,-0.00776373,1.4158258,-403.59907,-105.96733)"
       cx="398.00009"
       cy="244.24014"
       fx="398.00009"
       fy="244.24014"
       r="40.406101" />
    <linearGradient
       inkscape:collect="always"
       xlink:href="#linearGradient3938"
       id="linearGradient4503"
       gradientUnits="userSpaceOnUse"
       x1="485.88336"
       y1="192.72237"
       x2="487.90369"
       y2="388.69196" />
    <linearGradient
       inkscape:collect="always"
       xlink:href="#linearGradient3904"
       id="linearGradient4553"
       gradientUnits="userSpaceOnUse"
       x1="430.45114"
       y1="225.66872"
       x2="359.12048"
       y2="262.09729" />
    <radialGradient
       inkscape:collect="always"
       xlink:href="#linearGradient3918"
       id="radialGradient4555"
       gradientUnits="userSpaceOnUse"
       gradientTransform="matrix(2.0188321,0.01107033,-0.00776373,1.4158258,-403.59907,-105.96733)"
       cx="398.00009"
       cy="244.24014"
       fx="398.00009"
       fy="244.24014"
       r="40.406101" />
    <linearGradient
       inkscape:collect="always"
       xlink:href="#linearGradient3938"
       id="linearGradient4557"
       gradientUnits="userSpaceOnUse"
       x1="485.88336"
       y1="192.72237"
       x2="487.90369"
       y2="388.69196" />
    <linearGradient
       inkscape:collect="always"
       xlink:href="#linearGradient3904"
       id="linearGradient4605"
       gradientUnits="userSpaceOnUse"
       x1="430.45114"
       y1="225.66872"
       x2="359.12048"
       y2="262.09729" />
    <radialGradient
       inkscape:collect="always"
       xlink:href="#linearGradient3918"
       id="radialGradient4607"
       gradientUnits="userSpaceOnUse"
       gradientTransform="matrix(2.0188321,0.01107033,-0.00776373,1.4158258,-403.59907,-105.96733)"
       cx="398.00009"
       cy="244.24014"
       fx="398.00009"
       fy="244.24014"
       r="40.406101" />
    <linearGradient
       inkscape:collect="always"
       xlink:href="#linearGradient3938"
       id="linearGradient4609"
       gradientUnits="userSpaceOnUse"
       x1="485.88336"
       y1="192.72237"
       x2="487.90369"
       y2="388.69196" />
  </defs>
  <sodipodi:namedview
     id="base"
     pagecolor="#ffffff"
     bordercolor="#666666"
     borderopacity="1.0"
     inkscape:pageopacity="0.0"
     inkscape:pageshadow="2"
     inkscape:zoom="0.35355339"
     inkscape:cx="-6339.9361"
     inkscape:cy="-15.365174"
     inkscape:document-units="px"
     inkscape:current-layer="layer1"
     showgrid="false"
     inkscape:window-width="1231"
     inkscape:window-height="776"
     inkscape:window-x="49"
     inkscape:window-y="24"
     inkscape:window-maximized="1" />
  <metadata
     id="metadata7">
    <rdf:RDF>
      <cc:Work
         rdf:about="">
        <dc:format>image/svg+xml</dc:format>
        <dc:type
           rdf:resource="http://purl.org/dc/dcmitype/StillImage" />
        <dc:title></dc:title>
      </cc:Work>
    </rdf:RDF>
  </metadata>
  <g
     inkscape:label="Layer 1"
     inkscape:groupmode="layer"
     id="layer1">
    <g
       id="g4657"
       inkscape:export-filename="D:\Android\Workspace\pnrtracker\app\src\main\res\drawable-xxhdpi\g4657.png"
       inkscape:export-xdpi="14.971415"
       inkscape:export-ydpi="14.971415"
       transform="translate(-1316.6328,-236.17367)">
      <rect
         ry="104.6518"
         rx="104.6518"
         y="1635.6096"
         x="-5926.5083"
         height="841.60803"
         width="841.60803"
         id="rect4375"
         style="fill:#0099cc;fill-opacity:1;stroke:none" />
      <rect
         style="fill:#33b5e5;fill-opacity:1;stroke:none"
         id="rect4208"
         width="841.60803"
         height="841.60803"
         x="-5926.5083"
         y="1659.6512"
         rx="104.6518"
         ry="104.6518" />
      <path
         inkscape:connector-curvature="0"
         id="path4371"
         d="m -5477.5481,2093.2678 0,-16.5938 -56.3124,-9.0312 56.3124,25.625 z"
         style="fill:#ffffff;fill-opacity:1;stroke:none;filter:url(#filter4201)" />
      <path
         inkscape:connector-curvature="0"
         id="path4369"
         d="m -5467.3137,2090.924 0,-20.9375 -76.7812,18.2812 76.7812,2.6563 z"
         style="fill:#ffffff;fill-opacity:1;stroke:none;filter:url(#filter4201)" />
      <path
         inkscape:connector-curvature="0"
         id="path4367"
         d="m -5498.2043,2080.2521 0,-5.2187 -15,10.8437 15,-5.625 z"
         style="fill:#ffffff;fill-opacity:1;stroke:none;filter:url(#filter4201)" />
      <path
         transform="matrix(0.78954038,0,0,0.85116137,-2044.9293,177.86817)"
         inkscape:connector-curvature="0"
         id="path4351"
         d="m -4410.2624,1808.8149 -30.9374,0 -7.3126,212.5937 -153.8437,-212.5937 -18.0937,0 95.0624,253.8437 -277.9062,-171.0312 222.6562,238.5312 -265.875,-42.625 0,16.5938 240.6876,109.5625 -240.6876,57.3125 0,20.9375 249.375,8.5625 -249.375,180.4688 0,5.2187 290.5938,-108.8125 -171,277.9062 238.5312,-222.6562 -36.7187,229.125 27.4375,0 92.8125,-203.9375 48.5313,203.9375 30.9374,0 7.3438,-212.625 153.875,212.625 18.0625,0 -95.0625,-253.8438 277.9062,171.0313 -222.6562,-238.5625 265.875,42.625 0,-16.5938 -240.6875,-109.5624 240.6875,-57.2813 0,-20.9063 -249.375,-8.5937 249.375,-180.4687 0,-5.2188 -290.625,108.8125 171.0312,-277.9375 -238.5312,222.6875 36.7188,-229.125 -27.4376,0 -92.8124,203.9063 -48.5626,-203.9063 z"
         style="fill:#ffffff;fill-opacity:1;stroke:none;filter:url(#filter4201)" />
      <path
         inkscape:connector-curvature="0"
         id="rect3833"
         d="m -5775.7432,1890.1551 0,361.625 10.125,0 0,-348.0625 519.2188,0 0,348.0625 10.0938,0 0,-361.625 -539.4376,0 z"
         style="fill:#000000;fill-opacity:1;stroke:none" />
      <path
         inkscape:connector-curvature="0"
         id="rect3863"
         d="m -5765.6336,1903.6899 519.2184,0 0,348.0902 -519.2184,0 z"
         style="fill:#800000;fill-opacity:1;stroke:none" />
      <path
         sodipodi:nodetypes="ccccccc"
         inkscape:connector-curvature="0"
         id="rect2985"
         d="m -5737.8606,1770.4686 0,481.3114 463.6724,0 0,-481.3114 -115.9181,-76.1711 c -77.2788,0 -154.5575,0 -231.8362,0 z"
         style="fill:#7c0404;fill-opacity:1;stroke:none" />
      <path
         inkscape:connector-curvature="0"
         id="path3813"
         d="m -5621.9306,1694.28 -115.9375,76.1875 0,481.3125 11.7812,0 0,-467.375 110.0313,-73.9687 220.0625,0 110.0312,73.9687 0,467.375 11.7812,0 0,-481.3125 -115.9374,-76.1875 -231.8125,0 z"
         style="fill:#000000;fill-opacity:1;stroke:none" />
      <g
         transform="translate(-6168.4687,1547.2991)"
         id="g3926">
        <path
           transform="translate(270,1.4285708)"
           style="fill:#808080;fill-opacity:1;stroke:none"
           d="m 438.40619,244.24014 c 0,22.31568 -18.09042,40.4061 -40.4061,40.4061 -22.31567,0 -40.4061,-18.09042 -40.4061,-40.4061 0,-22.31567 18.09043,-40.4061 40.4061,-40.4061 22.31568,0 40.4061,18.09043 40.4061,40.4061 z"
           id="path3900"
           inkscape:connector-curvature="0" />
        <path
           transform="translate(270,1.4285708)"
           style="fill:url(#linearGradient4605);fill-opacity:1;stroke:#000000;stroke-width:0.1;stroke-miterlimit:4;stroke-opacity:1"
           d="m 438.40619,244.24014 c 0,22.31568 -18.09042,40.4061 -40.4061,40.4061 -22.31567,0 -40.4061,-18.09042 -40.4061,-40.4061 0,-22.31567 18.09043,-40.4061 40.4061,-40.4061 22.31568,0 40.4061,18.09043 40.4061,40.4061 z"
           id="path3902"
           inkscape:connector-curvature="0" />
        <path
           transform="matrix(0.91161165,0,0,0.91161165,305.17857,23.016554)"
           style="fill:#ffff76;fill-opacity:1;stroke:#000000;stroke-width:0.342251;stroke-miterlimit:4;stroke-opacity:1"
           d="m 438.40619,244.24014 c 0,22.31568 -18.09042,40.4061 -40.4061,40.4061 -22.31567,0 -40.4061,-18.09042 -40.4061,-40.4061 0,-22.31567 18.09043,-40.4061 40.4061,-40.4061 22.31568,0 40.4061,18.09043 40.4061,40.4061 z"
           id="path3914"
           inkscape:connector-curvature="0" />
        <path
           transform="matrix(0.89337942,0,0,0.89337942,312.435,27.469596)"
           style="fill:url(#radialGradient4607);fill-opacity:1;stroke:none"
           d="m 438.40619,244.24014 c 0,22.31568 -18.09042,40.4061 -40.4061,40.4061 -22.31567,0 -40.4061,-18.09042 -40.4061,-40.4061 0,-22.31567 18.09043,-40.4061 40.4061,-40.4061 22.31568,0 40.4061,18.09043 40.4061,40.4061 z"
           id="path3916"
           inkscape:connector-curvature="0" />
      </g>
      <path
         transform="matrix(1.3233083,0,0,0.99655976,-6148.789,1588.4287)"
         d="m 624.27428,287.6767 c 0,58.57864 -60.15068,106.06601 -134.3503,106.06601 -74.19962,0 -134.3503,-47.48737 -134.3503,-106.06601 0,-58.57865 60.15068,-106.06602 134.3503,-106.06602 74.19962,0 134.3503,47.48737 134.3503,106.06602 z"
         sodipodi:ry="106.06602"
         sodipodi:rx="134.3503"
         sodipodi:cy="287.6767"
         sodipodi:cx="489.92398"
         id="path3936"
         style="fill:url(#linearGradient4609);fill-opacity:1;stroke:none;filter:url(#filter3946)"
         sodipodi:type="arc" />
      <path
         sodipodi:nodetypes="sssss"
         inkscape:connector-curvature="0"
         id="path3974"
         d="m -5449.961,1783.2085 c 0,5.8579 -21.8987,-20.9648 -49.7933,-20.9648 -27.8946,0 -51.2219,26.8227 -51.2219,20.9648 0,-5.8578 22.613,-30.6066 50.5076,-30.6066 27.8946,0 50.5076,24.7488 50.5076,30.6066 z"
         style="fill:#cccccc;fill-opacity:1;stroke:none" />
      <rect
         rx="5.0507631"
         ry="5.0507631"
         y="2251.78"
         x="-5827.0947"
         height="105.77599"
         width="643.46716"
         id="rect4140"
         style="fill:#333333;fill-opacity:1;stroke:none" />
      <g
         id="g4095"
         transform="translate(-4746.7936,1514.6163)">
        <path
           transform="matrix(1.011648,0,0,1.011648,-456.76863,331.86533)"
           d="m -22.223354,453.34174 c 0,22.87356 -18.54269,41.41625 -41.416256,41.41625 -22.873567,0 -41.41626,-18.54269 -41.41626,-41.41625 0,-22.87357 18.542693,-41.41626 41.41626,-41.41626 22.873566,0 41.416256,18.54269 41.416256,41.41626 z"
           sodipodi:ry="41.416256"
           sodipodi:rx="41.416256"
           sodipodi:cy="453.34174"
           sodipodi:cx="-63.63961"
           id="path4097"
           style="fill:#333333;fill-opacity:1;stroke:none"
           sodipodi:type="arc" />
        <path
           sodipodi:type="arc"
           style="fill:#cccccc;fill-opacity:1;stroke:none"
           id="path4099"
           sodipodi:cx="-63.63961"
           sodipodi:cy="453.34174"
           sodipodi:rx="41.416256"
           sodipodi:ry="41.416256"
           d="m -22.223354,453.34174 c 0,22.87356 -18.54269,41.41625 -41.416256,41.41625 -22.873567,0 -41.41626,-18.54269 -41.41626,-41.41625 0,-22.87357 18.542693,-41.41626 41.41626,-41.41626 22.873566,0 41.416256,18.54269 41.416256,41.41626 z"
           transform="matrix(0.95058212,0,0,0.95058212,-460.65484,359.54904)" />
        <path
           sodipodi:type="arc"
           style="fill:#333333;fill-opacity:1;stroke:none;filter:url(#filter4067)"
           id="path4101"
           sodipodi:cx="-63.63961"
           sodipodi:cy="453.34174"
           sodipodi:rx="41.416256"
           sodipodi:ry="41.416256"
           d="m -22.223354,453.34174 c 0,22.87356 -18.54269,41.41625 -41.416256,41.41625 -22.873567,0 -41.41626,-18.54269 -41.41626,-41.41625 0,-22.87357 18.542693,-41.41626 41.41626,-41.41626 22.873566,0 41.416256,18.54269 41.416256,41.41626 z"
           transform="matrix(1.011648,0,0,1.011648,-456.76863,331.86533)" />
        <g
           id="g4110">
          <g
             id="g4089"
             transform="translate(-476.16254,-2.7923584e-6)">
            <path
               transform="matrix(1.011648,0,0,1.011648,-456.76863,331.86533)"
               d="m -22.223354,453.34174 c 0,22.87356 -18.54269,41.41625 -41.416256,41.41625 -22.873567,0 -41.41626,-18.54269 -41.41626,-41.41625 0,-22.87357 18.542693,-41.41626 41.41626,-41.41626 22.873566,0 41.416256,18.54269 41.416256,41.41626 z"
               sodipodi:ry="41.416256"
               sodipodi:rx="41.416256"
               sodipodi:cy="453.34174"
               sodipodi:cx="-63.63961"
               id="path4057"
               style="fill:#333333;fill-opacity:1;stroke:none"
               sodipodi:type="arc" />
            <path
               sodipodi:type="arc"
               style="fill:#cccccc;fill-opacity:1;stroke:none"
               id="path4059"
               sodipodi:cx="-63.63961"
               sodipodi:cy="453.34174"
               sodipodi:rx="41.416256"
               sodipodi:ry="41.416256"
               d="m -22.223354,453.34174 c 0,22.87356 -18.54269,41.41625 -41.416256,41.41625 -22.873567,0 -41.41626,-18.54269 -41.41626,-41.41625 0,-22.87357 18.542693,-41.41626 41.41626,-41.41626 22.873566,0 41.416256,18.54269 41.416256,41.41626 z"
               transform="matrix(0.95058212,0,0,0.95058212,-460.65484,359.54904)" />
            <path
               sodipodi:type="arc"
               style="fill:#333333;fill-opacity:1;stroke:none;filter:url(#filter4067)"
               id="path4061"
               sodipodi:cx="-63.63961"
               sodipodi:cy="453.34174"
               sodipodi:rx="41.416256"
               sodipodi:ry="41.416256"
               d="m -22.223354,453.34174 c 0,22.87356 -18.54269,41.41625 -41.416256,41.41625 -22.873567,0 -41.41626,-18.54269 -41.41626,-41.41625 0,-22.87357 18.542693,-41.41626 41.41626,-41.41626 22.873566,0 41.416256,18.54269 41.416256,41.41626 z"
               transform="matrix(1.011648,0,0,1.011648,-456.76863,331.86533)" />
            <path
               transform="matrix(0.673718,0,0,0.673718,-478.27436,485.0631)"
               d="m -22.223354,453.34174 c 0,22.87356 -18.54269,41.41625 -41.416256,41.41625 -22.873567,0 -41.41626,-18.54269 -41.41626,-41.41625 0,-22.87357 18.542693,-41.41626 41.41626,-41.41626 22.873566,0 41.416256,18.54269 41.416256,41.41626 z"
               sodipodi:ry="41.416256"
               sodipodi:rx="41.416256"
               sodipodi:cy="453.34174"
               sodipodi:cx="-63.63961"
               id="path4079"
               style="fill:#cccccc;fill-opacity:1;stroke:none;filter:url(#filter4085)"
               sodipodi:type="arc" />
          </g>
          <path
             sodipodi:type="arc"
             style="fill:#cccccc;fill-opacity:1;stroke:none;filter:url(#filter4085)"
             id="path4103"
             sodipodi:cx="-63.63961"
             sodipodi:cy="453.34174"
             sodipodi:rx="41.416256"
             sodipodi:ry="41.416256"
             d="m -22.223354,453.34174 c 0,22.87356 -18.54269,41.41625 -41.416256,41.41625 -22.873567,0 -41.41626,-18.54269 -41.41626,-41.41625 0,-22.87357 18.542693,-41.41626 41.41626,-41.41626 22.873566,0 41.416256,18.54269 41.416256,41.41626 z"
             transform="matrix(0.673718,0,0,0.673718,-478.27436,485.0631)" />
        </g>
      </g>
      <path
         sodipodi:nodetypes="ccccc"
         inkscape:connector-curvature="0"
         id="rect4248"
         d="m -5827.8102,2359.2275 646.4976,0 26.2857,132.5709 -701.3547,0 z"
         style="opacity:0.77631579;fill:#333333;fill-opacity:1;stroke:none" />
      <path
         sodipodi:nodetypes="ccccc"
         inkscape:connector-curvature="0"
         id="rect4250"
         d="m -5816.6985,2368.3189 18.1827,0 -26.0857,115.1574 -19.7256,0 z"
         style="fill:#ffffff;fill-opacity:1;stroke:none" />
      <path
         sodipodi:nodetypes="ccccc"
         inkscape:connector-curvature="0"
         id="rect4254"
         d="m -5776.0904,2368.3189 18.1828,0 -22.64,115.1574 -19.7257,0 z"
         style="fill:#ffffff;fill-opacity:1;stroke:none" />
      <path
         sodipodi:nodetypes="ccccc"
         inkscape:connector-curvature="0"
         id="rect4256"
         d="m -5735.4822,2368.3189 18.1827,0 -19.1943,115.1574 -19.7256,0 z"
         style="fill:#ffffff;fill-opacity:1;stroke:none" />
      <path
         sodipodi:nodetypes="ccccc"
         inkscape:connector-curvature="0"
         id="rect4260"
         d="m -5694.8742,2368.3189 18.1827,0 -15.7486,115.1574 -19.7256,0 z"
         style="fill:#ffffff;fill-opacity:1;stroke:none" />
      <path
         sodipodi:nodetypes="ccccc"
         inkscape:connector-curvature="0"
         id="rect4262"
         d="m -5654.266,2368.3189 18.1827,0 -12.3028,115.1574 -19.7256,0 z"
         style="fill:#ffffff;fill-opacity:1;stroke:none" />
      <path
         sodipodi:nodetypes="ccccc"
         inkscape:connector-curvature="0"
         id="rect4264"
         d="m -5613.6578,2368.3189 18.1827,0 -8.8571,115.1574 -19.7256,0 z"
         style="fill:#ffffff;fill-opacity:1;stroke:none" />
      <path
         sodipodi:nodetypes="ccccc"
         inkscape:connector-curvature="0"
         id="rect4268"
         d="m -5573.0497,2368.3189 18.1828,0 -5.4115,115.1574 -19.7256,0 z"
         style="fill:#ffffff;fill-opacity:1;stroke:none" />
      <path
         sodipodi:nodetypes="ccccc"
         inkscape:connector-curvature="0"
         id="rect4272"
         d="m -5532.4416,2368.3189 18.1827,0 -1.9657,115.1574 -19.7255,0 z"
         style="fill:#ffffff;fill-opacity:1;stroke:none" />
      <path
         sodipodi:nodetypes="ccccc"
         inkscape:connector-curvature="0"
         id="rect4274"
         d="m -5491.8334,2368.3189 18.1827,0 1.48,115.1574 -19.7256,0 z"
         style="fill:#ffffff;fill-opacity:1;stroke:none" />
      <path
         sodipodi:nodetypes="ccccc"
         inkscape:connector-curvature="0"
         id="rect4276"
         d="m -5451.2253,2368.3189 18.1828,0 4.9257,115.1574 -19.7256,0 z"
         style="fill:#ffffff;fill-opacity:1;stroke:none" />
      <path
         sodipodi:nodetypes="ccccc"
         inkscape:connector-curvature="0"
         id="rect4278"
         d="m -5410.6172,2368.3189 18.1828,0 8.3714,115.1574 -19.7256,0 z"
         style="fill:#ffffff;fill-opacity:1;stroke:none" />
      <path
         sodipodi:nodetypes="ccccc"
         inkscape:connector-curvature="0"
         id="rect4280"
         d="m -5370.009,2368.3189 18.1827,0 11.8171,115.1574 -19.7256,0 z"
         style="fill:#ffffff;fill-opacity:1;stroke:none" />
      <path
         sodipodi:nodetypes="ccccc"
         inkscape:connector-curvature="0"
         id="rect4282"
         d="m -5329.4009,2368.3189 18.1827,0 15.2628,115.1574 -19.7256,0 z"
         style="fill:#ffffff;fill-opacity:1;stroke:none" />
      <path
         sodipodi:nodetypes="ccccc"
         inkscape:connector-curvature="0"
         id="rect4284"
         d="m -5288.7928,2368.3189 18.1828,0 18.7086,115.1574 -19.7257,0 z"
         style="fill:#ffffff;fill-opacity:1;stroke:none" />
      <path
         sodipodi:nodetypes="ccccc"
         inkscape:connector-curvature="0"
         id="rect4286"
         d="m -5248.1846,2368.3189 18.1827,0 22.1543,115.1574 -19.7257,0 z"
         style="fill:#ffffff;fill-opacity:1;stroke:none" />
      <path
         sodipodi:nodetypes="ccccc"
         inkscape:connector-curvature="0"
         id="rect4288"
         d="m -5207.5765,2368.3189 18.1827,0 25.6,115.1574 -19.7256,0 z"
         style="fill:#ffffff;fill-opacity:1;stroke:none" />
      <flowRoot
         transform="translate(-1433.7961,-106.69987)"
         style="font-size:40px;font-style:normal;font-weight:normal;line-height:125%;letter-spacing:0px;word-spacing:0px;fill:#000000;fill-opacity:1;stroke:none;font-family:Sans"
         id="flowRoot4126"
         xml:space="preserve"><flowRegion
           id="flowRegion4128"><rect
             y="2036.2507"
             x="-4244.6611"
             height="120.05586"
             width="359.35034"
             id="rect4130" /></flowRegion><flowPara
           style="font-size:100px;font-style:normal;font-variant:normal;font-weight:normal;font-stretch:normal;text-align:start;line-height:125%;writing-mode:lr-tb;text-anchor:start;fill:#e6e6e6;font-family:Rage Italic;-inkscape-font-specification:'Rage Italic,'"
           id="flowPara4132">Railways</flowPara></flowRoot>      <rect
         y="1669.1121"
         x="-5571.4653"
         height="26.870056"
         width="131.52187"
         id="rect4015"
         style="fill:#333333;fill-opacity:1;stroke:none" />
      <path
         transform="translate(-1047.1822,-34.95975)"
         inkscape:transform-center-y="-1.3379363"
         inkscape:transform-center-x="1.535164"
         d="m -4369.92,1874.0202 -72.4596,-26.2931 26.8239,72.4803 -38.6064,-66.7179 -26.0412,72.7653 13.3112,-75.9246 -66.7213,39.0025 59.0004,-49.6053 -76.1818,-13.01 77.0826,-0.075 -49.996,-58.9349 59.097,49.4901 -0.4165,-77.2836 13.4593,75.8985 49.3579,-59.4704 -38.4762,66.7931 76.0372,-13.8303 -72.4083,26.4344 z"
         inkscape:randomized="0"
         inkscape:rounded="0"
         inkscape:flatsided="false"
         sodipodi:arg2="0.7668637"
         sodipodi:arg1="0.43032661"
         sodipodi:r2="19.174517"
         sodipodi:r1="94.921021"
         sodipodi:cy="1834.4222"
         sodipodi:cx="-4456.187"
         sodipodi:sides="9"
         id="path4131"
         style="fill:#ffffff;fill-opacity:1;stroke:none;filter:url(#filter4137)"
         sodipodi:type="star" />
      <path
         transform="translate(35.355339,29.698485)"
         d="m -5622.913,2171.0052 -47.9836,-26.3271 -42.3404,34.6819 10.2108,-53.7706 -46.0683,-29.5508 54.2942,-6.905 13.8686,-52.9453 23.3449,49.5031 54.6396,-3.1712 -39.8663,37.4996 z"
         inkscape:randomized="0"
         inkscape:rounded="0"
         inkscape:flatsided="false"
         sodipodi:arg2="1.4785607"
         sodipodi:arg1="0.85024219"
         sodipodi:r2="31.790813"
         sodipodi:r1="77.16217"
         sodipodi:cy="2113.0225"
         sodipodi:cx="-5673.8247"
         sodipodi:sides="5"
         id="path4434"
         style="fill:#ff8800;fill-opacity:1;stroke:none"
         sodipodi:type="star" />
      <path
         sodipodi:type="star"
         style="fill:#ffffff;fill-opacity:1;stroke:none"
         id="path4436"
         sodipodi:sides="5"
         sodipodi:cx="-5673.8247"
         sodipodi:cy="2113.0225"
         sodipodi:r1="77.16217"
         sodipodi:r2="31.790813"
         sodipodi:arg1="0.85024219"
         sodipodi:arg2="1.4785607"
         inkscape:flatsided="false"
         inkscape:rounded="0"
         inkscape:randomized="0"
         d="m -5622.913,2171.0052 -47.9836,-26.3271 -42.3404,34.6819 10.2108,-53.7706 -46.0683,-29.5508 54.2942,-6.905 13.8686,-52.9453 23.3449,49.5031 54.6396,-3.1712 -39.8663,37.4996 z"
         transform="translate(172.53392,29.698485)" />
      <path
         transform="translate(309.71277,29.698485)"
         d="m -5622.913,2171.0052 -47.9836,-26.3271 -42.3404,34.6819 10.2108,-53.7706 -46.0683,-29.5508 54.2942,-6.905 13.8686,-52.9453 23.3449,49.5031 54.6396,-3.1712 -39.8663,37.4996 z"
         inkscape:randomized="0"
         inkscape:rounded="0"
         inkscape:flatsided="false"
         sodipodi:arg2="1.4785607"
         sodipodi:arg1="0.85024219"
         sodipodi:r2="31.790813"
         sodipodi:r1="77.16217"
         sodipodi:cy="2113.0225"
         sodipodi:cx="-5673.8247"
         sodipodi:sides="5"
         id="path4655"
         style="fill:#669900;fill-opacity:1;stroke:none"
         sodipodi:type="star" />
    </g>
    <path
       sodipodi:type="star"
       style="color:#000000;fill:#ff8800;fill-opacity:1;fill-rule:nonzero;stroke:none;stroke-width:4;marker:none;visibility:visible;display:inline;overflow:visible;enable-background:accumulate"
       id="path3228"
       sodipodi:sides="5"
       sodipodi:cx="-5560.6875"
       sodipodi:cy="198.17719"
       sodipodi:r1="475.31042"
       sodipodi:r2="61.290222"
       sodipodi:arg1="1.5707963"
       sodipodi:arg2="2.1991148"
       inkscape:flatsided="false"
       inkscape:rounded="-0.543"
       inkscape:randomized="0"
       d="m -5560.6875,673.48761 c 231.9952,-10e-6 -223.7135,-562.08894 -36.0255,-425.72559 187.6881,136.36335 -487.712,-123.34636 -416.0216,97.29418 71.6905,220.64053 465.4471,-386.459276 393.7566,-165.81873 -71.6904,220.64054 -33.4019,-501.95785 -221.09,-365.59449 -187.688,136.363366 511.3757,323.24398 279.3805,323.24398 -231.9952,1e-5 467.0685,-186.880649 279.3804,-323.24399 -187.688,-136.36335 -149.3995,586.23503 -221.0899,365.59449 -71.6905,-220.64054 322.0661,386.45926 393.7566,165.81871 71.6904,-220.64054 -603.7097,39.0692 -416.0216,-97.29416 187.688,-136.36336 -268.0207,425.72561 -36.0255,425.7256 z"
       transform="matrix(0.0781123,-0.0781123,0.0781123,0.0781123,-5845.2846,878.77572)"
       inkscape:export-filename="/home/mitesh/AndroidStudioProjects/PnrTracker/Docs/DrawingDocs/Inkscape_Data/working.png"
       inkscape:export-xdpi="90"
       inkscape:export-ydpi="90" />
  </g>
</svg>
